# xmcd CD database file
#
# Track frame offsets:
#	150
#	14353
#	32105
#	51583
#	67978
#	89438
#	100963
#	116573
#	135413
#	162938
#
# Disc length: 2436 seconds
#
# Revision: 2
# Processed by: cddbd v1.5.2PL0 Copyright (c) Steve Scherf et al.
# Submitted via: CDex 1.81
#
DISCID=8309820a
DTITLE=Gail Davies - Eclectic
DYEAR=1994
DGENRE=Country
TTITLE0=Just Can't Satisfy You
TTITLE1=A Friend Like You
TTITLE2=Where Does Love Come From
TTITLE3=In The Worst Way
TTITLE4=Drifting
TTITLE5=Your Mamma Works So Hard
TTITLE6=Wedding Invitation
TTITLE7=Heat It Up
TTITLE8=Lean On You
TTITLE9=Reaching Out For Him
EXTD=YEAR: 1994
EXTT0=
EXTT1=
EXTT2=
EXTT3=
EXTT4=
EXTT5=
EXTT6=
EXTT7=
EXTT8=
EXTT9=
PLAYORDER=
